# xmcd
#
# Track frame offsets: 
#        150
#        31602
#        73556
#        94228
#        115328
#        140379
#        154294
#        177153
#        210270
#        230614
#        254156
#        277046
#        296539
#        316990
#
# Disc length: 4468 seconds
#
# Revision: 2
# Processed by: cddbd v1.5.2PL0 Copyright (c) Steve Scherf et al.
# Submitted via: ExactAudioCopy v1.0b3
#
DISCID=cc11720e
DTITLE=Sonny Moorman - Live as Hell
DYEAR=2009
DGENRE=Blues
TTITLE0=Chitlins Con Carne
TTITLE1=Highway 61 Revisited
TTITLE2=Everybody's Blues
TTITLE3=Tired Of Tryin'
TTITLE4=Whiter Shade of Pale
TTITLE5=Wham
TTITLE6=If You Have to Know
TTITLE7=Cincinnati Jail
TTITLE8=Harlem Nocturne
TTITLE9=Key to the Highway
TTITLE10=Early in the Morning
TTITLE11=Rattlesnake Shake
TTITLE12=Green Manalishi
TTITLE13=Oh Well
EXTD=
EXTT0=
EXTT1=
EXTT2=
EXTT3=
EXTT4=
EXTT5=
EXTT6=
EXTT7=
EXTT8=
EXTT9=
EXTT10=
EXTT11=
EXTT12=
EXTT13=
PLAYORDER=
